<svg xmlns="http://www.w3.org/2000/svg" version="1.0" preserveAspectRatio="xMidYMid meet" viewBox="18.93 17.04 47.07 71.02">

<g transform="translate(0.000000,100.000000) scale(0.100000,-0.100000)" fill="#000000" stroke="none">
<path d="M535 819 c-4 -6 -33 -62 -64 -125 l-56 -115 -37 49 c-54 70 -143 152 -166 152 -40 0 -28 -28 42 -102 40 -42 85 -95 101 -118 l29 -41 -32 -62 c-17 -34 -50 -97 -73 -139 -37 -71 -74 -186 -63 -198 11 -10 106 113 160 207 32 57 61 103 64 103 3 0 24 -29 48 -63 39 -58 172 -200 172 -185 0 15 -76 147 -132 231 l-60 88 61 128 c65 137 73 174 42 191 -25 13 -28 13 -36 -1z"/>
</g>
</svg>