<?xml version="1.0" standalone="no"?>
<!DOCTYPE svg PUBLIC "-//W3C//DTD SVG 20010904//EN"
 "http://www.w3.org/TR/2001/REC-SVG-20010904/DTD/svg10.dtd">
<svg version="1.0" xmlns="http://www.w3.org/2000/svg"
 width="258.000000pt" height="355.000000pt" viewBox="0 0 258.000000 355.000000"
 preserveAspectRatio="xMidYMid meet">

<g transform="translate(0.000000,355.000000) scale(0.100000,-0.100000)"
fill="currentColor" stroke="none">
<path d="M1120 3411 c-79 -25 -116 -47 -173 -100 -92 -85 -143 -186 -157 -310
-13 -114 0 -168 79 -328 39 -79 69 -143 66 -143 -2 0 -51 34 -108 75 -150 109
-259 140 -397 115 -143 -26 -256 -105 -315 -222 -32 -64 -35 -79 -35 -153 0
-71 4 -90 31 -143 19 -40 51 -80 89 -115 l59 -53 -43 -43 c-24 -24 -57 -66
-73 -95 -26 -46 -28 -60 -28 -151 0 -92 2 -104 29 -153 39 -71 112 -137 194
-175 64 -31 72 -32 193 -32 125 0 125 0 200 37 61 31 115 75 301 248 125 115
232 210 236 210 5 0 51 -123 102 -272 51 -150 104 -295 117 -322 37 -73 116
-147 203 -189 218 -106 444 -45 540 146 26 52 30 71 30 138 0 45 -7 98 -16
125 -8 25 -14 47 -12 48 2 2 30 8 63 15 119 26 204 92 252 197 103 226 -77
514 -354 564 -50 8 -87 8 -184 -5 -67 -9 -123 -14 -126 -12 -2 2 51 44 118 92
147 107 190 150 234 237 69 139 73 283 12 413 -111 233 -377 301 -595 151
l-48 -34 -28 55 c-30 55 -106 132 -160 160 -86 44 -204 54 -296 24z"/>
<path d="M1103 1557 c-638 -1226 -686 -1321 -675 -1349 15 -41 103 -200 108
-195 6 6 714 1810 711 1813 -1 1 -66 -120 -144 -269z"/>
</g>
</svg>
