<svg id="Ebene_1" data-name="Ebene 1" xmlns="http://www.w3.org/2000/svg" viewBox="0 0 209 40"><defs><style>.cls-1{fill:#fff;}</style></defs><title>Zeichenfläche 2</title><path class="cls-1" d="M182.47,39.28h14.72c6,0,11.81-3.4,11.81-10.82a9.35,9.35,0,0,0-8.41-9.56v0a9.25,9.25,0,0,0,7.26-9.18c0-6.32-4.34-9.61-10.94-9.61H182.47Zm3.46-3V20.6h10.33c5.1,0,9.23,2.37,9.23,7.75s-4,8-9.13,8Zm0-18.62V3H196.1c4.66,0,8.34,2.14,8.34,7.2s-4.22,7.48-8.84,7.48Z"/><path class="cls-1" d="M159.49,39.94c9.18,0,15.88-5.27,15.88-14.83V.11h-8.46V24.84c0,5.11-2.53,7.74-7.25,7.74-5.06,0-7.37-3.13-7.37-7.74V.11h-8.56V25.6c0,9.62,6.26,14.34,15.76,14.34"/><path class="cls-1" d="M129.92,26.16c5.48-3.1,7.59-7.72,7.59-12.39,0-7.69-5.5-13.68-13.63-13.68H106.55V39.26h8.52V7h6.69c4.77,0,7.42,2.85,7.42,6.76,0,3.37-2.08,6.79-7.36,6.79h-5.36l13.46,18.7h9.4Z"/><path class="cls-1" d="M44,39.22h1v-7.4h0l2.71,5.26h.83l2.7-5.27h0v7.41h1V30h-1.3l-2.83,5.66h0L45.32,30H44Zm-5.66.15a3.11,3.11,0,0,0,3.43-3.23V30h-1v6.08a2.14,2.14,0,0,1-2.37,2.37A2.19,2.19,0,0,1,36,36V30H35V36.2c0,2.23,1.62,3.17,3.41,3.17M26,39.22H27V34.9h4.68v4.32h1.05V30H31.69v4H27V30H26Zm-5.22.17c1.84,0,3.27-1,3.27-2.78v-.33H23v.19c0,1.25-.92,2-2.27,2a2.27,2.27,0,0,1-2.5-2.28V33.08a2.27,2.27,0,0,1,2.44-2.32c1.36,0,2.33.72,2.33,2v.32h1V32.6c0-1.71-1.45-2.77-3.29-2.77a3.24,3.24,0,0,0-3.51,3.26v3.2c0,2,1.56,3.1,3.53,3.1m-8.9-.94a2.26,2.26,0,0,1-2.5-2.28v-3a2.29,2.29,0,0,1,2.44-2.39A2.23,2.23,0,0,1,14.3,33v3.16a2.27,2.27,0,0,1-2.46,2.33m0,.94A3.29,3.29,0,0,0,15.34,36V33a3.2,3.2,0,0,0-3.52-3.2,3.29,3.29,0,0,0-3.51,3.34v3.15c0,2,1.6,3.1,3.53,3.1M1.2,34V30.87H3.48c1.05,0,1.84.46,1.84,1.55S4.46,34,3.42,34Zm0,4.29V34.92H3.57c1.14,0,2,.5,2,1.67s-.86,1.74-2,1.74Zm-1,.89H3.81a2.57,2.57,0,0,0,2.81-2.58,2.19,2.19,0,0,0-1.88-2.25h0a2.14,2.14,0,0,0,1.61-2.11c0-1.51-1-2.29-2.65-2.29H.15Z"/><path class="cls-1" d="M76.78,24.27h1.71V16.51h2.65V15h-7v1.48h2.66ZM70.72,14.2h1.54V12.51H70.72Zm-2.6,0h1.54V12.51H68.12Zm.74,6.62,1.27-3.69h0l1.26,3.69ZM66,24.27h1.69l.7-2h3.53l.67,2h1.83L71,15H69.42Zm-4,0h1.71V16.51h2.66V15h-7v1.48H62Zm-5.92,0h1.72V15H56.09Zm-5.29.14c2,0,3.55-1.12,3.55-2.82A2.44,2.44,0,0,0,52.24,19l-1.58-.38c-.73-.2-1.35-.5-1.35-1.15,0-.83.73-1.16,1.48-1.16a2,2,0,0,1,2,1.06l1.41-.62a3.13,3.13,0,0,0-3.25-1.9c-1.79,0-3.3,1-3.3,2.75s1,2.19,2.21,2.5l1.56.38c.71.21,1.27.52,1.27,1.21,0,.85-.88,1.21-1.82,1.21a2.25,2.25,0,0,1-2.22-1.39l-1.56.6c.48,1.57,2,2.28,3.73,2.28m-10-5.05V16.48h1.69c1,0,1.69.35,1.69,1.44s-.66,1.44-1.66,1.44ZM39,24.27h1.72V20.81h1.49l2.16,3.46h1.88L44,20.62a2.78,2.78,0,0,0,1.82-2.69A2.85,2.85,0,0,0,42.68,15H39Zm-8.36,0h6.46V22.75H32.39V20.32h4.16V18.8H32.39V16.55h4.69V15H30.67Zm-5.94,0h1.69l3-9.28H27.76l-2.08,6.8h0L23.57,15H21.7Zm-5.94,0h1.72V15H18.79Zm-9.5,0H11V18h0l4,6.31h1.68V15H15v6.3h0L11,15H9.29Zm-5.68.14A3.29,3.29,0,0,0,7.23,21V15H5.51v5.85a1.72,1.72,0,0,1-1.9,2,1.75,1.75,0,0,1-1.89-2V15H0v6.06c0,2.21,1.46,3.32,3.61,3.32"/><path class="cls-1" d="M29,4.41V1.53h1.7c1,0,1.68.35,1.68,1.44s-.66,1.44-1.66,1.44ZM27.25,9.32H29V5.86h1.49l2.16,3.46H34.5L32.21,5.67A2.76,2.76,0,0,0,34,3,2.85,2.85,0,0,0,30.9.08H27.25ZM18,9.32H19.7V5.37h3.7v4h1.72V.08H23.4V3.85H19.7V.08H18Zm-5.67.14A3.28,3.28,0,0,0,15.92,6V.08H14.2V5.93c0,1.32-.64,2-1.89,2a1.75,1.75,0,0,1-1.9-2V.08H8.69V6.13c0,2.22,1.47,3.33,3.62,3.33M1.79,4.41V1.53H3.48c1,0,1.69.35,1.69,1.44S4.51,4.41,3.51,4.41ZM.06,9.32H1.79V5.86H3.28L5.44,9.32H7.32L5,5.67A2.76,2.76,0,0,0,6.85,3,2.85,2.85,0,0,0,3.72.08H.06Z"/></svg>